<svg xmlns="http://www.w3.org/2000/svg" viewBox="0 0 200 90"><title>locateABranch</title><g id="FLT_ART_WORKS" data-name="FLT ART WORKS"><polygon points="134.93 57.68 116.5 51.34 100.05 58.53 82.38 51.38 65.18 57.67 48.71 83.6 77.76 72.89 100.07 83.41 122.36 72.89 151.28 82.95 134.93 57.68" style="fill:#fff"/><path d="M86.39,39l13.75,13.71L113.9,39a17.57,17.57,0,0,0,5.8-12.8A19.27,19.27,0,0,0,114,12.08a19.56,19.56,0,0,0-33.3,14.38A17.32,17.32,0,0,0,86.39,39Z" style="fill:#fff"/><path d="M101.19,8.5a16.6,16.6,0,0,0-16.57,17A14.49,14.49,0,0,0,89.45,36l11.68,11.64,11.7-11.7a14.64,14.64,0,0,0,4.87-10.72,16.28,16.28,0,0,0-4.86-11.92A16.48,16.48,0,0,0,101.19,8.5Z" style="fill:#00b624"/><polygon points="66.18 58.9 82.35 52.98 100.07 60.16 116.56 52.95 133.95 58.93 147.65 80.1 122.28 71.27 100.07 81.75 77.83 71.26 52.35 80.66 66.18 58.9" style="fill:none;stroke:#1a5336;stroke-miterlimit:10;stroke-width:3px"/><line x1="100.24" y1="60.57" x2="100.24" y2="65.18" style="fill:none;stroke:#1a5336;stroke-miterlimit:10;stroke-width:1.89557147026062px"/><line x1="100.18" y1="75.96" x2="100.18" y2="80.57" style="fill:none;stroke:#1a5336;stroke-miterlimit:10;stroke-width:1.89557147026062px"/><line x1="100.24" y1="68.1" x2="100.24" y2="72.71" style="fill:none;stroke:#1a5336;stroke-miterlimit:10;stroke-width:1.89557147026062px"/><line x1="79.06" y1="66.95" x2="78" y2="71.14" style="fill:none;stroke:#1a5336;stroke-miterlimit:10;stroke-width:1.89557147026062px"/><line x1="80.72" y1="60.4" x2="79.66" y2="64.59" style="fill:none;stroke:#1a5336;stroke-miterlimit:10;stroke-width:1.89557147026062px"/><line x1="82.33" y1="54.03" x2="81.27" y2="58.22" style="fill:none;stroke:#1a5336;stroke-miterlimit:10;stroke-width:1.89557147026062px"/><line x1="120.78" y1="66.95" x2="121.84" y2="71.14" style="fill:none;stroke:#1a5336;stroke-miterlimit:10;stroke-width:1.89557147026062px"/><line x1="119.12" y1="60.4" x2="120.18" y2="64.59" style="fill:none;stroke:#1a5336;stroke-miterlimit:10;stroke-width:1.89557147026062px"/><line x1="117.51" y1="54.03" x2="118.57" y2="58.22" style="fill:none;stroke:#1a5336;stroke-miterlimit:10;stroke-width:1.89557147026062px"/><path d="M90.35,21.05h14.57c3.53,0,5.17,1.7,5.17,6,0,5.65-2.47,6.34-5.86,6.34H98.37V23.45h2.95v8.23h2.83c2,0,2.78-1.29,2.78-4.56S106,22.85,104,22.85H97.55V33.39H94.63V22.81H90.35Z" style="fill:#fff"/><path d="M100.14,50.62,112.9,37.87c7-6.32,7.12-17.69,0-24.73a18,18,0,0,0-25.45.06c-7,7-7.12,18.45,0,24.77Z" style="fill:none;stroke:#1a5336;stroke-miterlimit:10;stroke-width:3px"/></g></svg>