<svg xmlns="http://www.w3.org/2000/svg" viewBox="0 0 320 180"><title>onlineMobileSecurityGuarantee</title><g id="FLT_ART_WORKS" data-name="FLT ART WORKS"><path d="M122.2,130.8v6.14a2.8,2.8,0,0,0,2.81,2.8h18.9V128H125A2.81,2.81,0,0,0,122.2,130.8Z" style="fill:#1a5336"/><rect x="143.91" y="128" width="8" height="11.74" style="fill:#fff"/><path d="M97.15,79.35a39.1,39.1,0,0,1-25,20.75l-.38.09-.38-.08C70.68,100,54,96.12,46,79.35,38.28,63,39.16,41.91,39.2,41l.09-1.78,1.78.12c.09,0,9.6.58,16-2.1,7-2.95,13.22-9.57,13.28-9.63l1.28-1.37,1.28,1.37c.06.06,6.32,6.69,13.28,9.63,6.37,2.69,15.87,2.11,16,2.1l1.78-.12L104,41C104,41.91,104.89,63,97.15,79.35Z" style="fill:#fff"/><rect x="138.84" y="42.57" width="126.86" height="81.26" style="fill:#fff"/><path d="M264,122.08H137.09v-80a1.24,1.24,0,0,1,1.24-1.24H262.72A1.23,1.23,0,0,1,264,42.06Z" style="fill:none;stroke:#1a5336;stroke-linecap:square;stroke-miterlimit:10;stroke-width:3.5px"/><path d="M276.19,128H218v1.34a1.16,1.16,0,0,1-1.16,1.15H184.24a1.16,1.16,0,0,1-1.16-1.15V128H125a2.81,2.81,0,0,0-2.81,2.81v6.13a2.8,2.8,0,0,0,2.81,2.8H276.19a2.64,2.64,0,0,0,2.65-2.65v-6.44A2.65,2.65,0,0,0,276.19,128Z" style="fill:#1a5336"/><path d="M72.29,94.82c-3.27-1-14.75-5.25-20.44-17.29C46.63,66.47,45.69,52.63,45.57,46c4.26-.1,9.73-.68,14.27-2.6a47.47,47.47,0,0,0,12.27-8.14,47.54,47.54,0,0,0,12.28,8.14c4.53,1.92,10,2.5,14.26,2.6-.13,6.69-1.07,20.55-6.28,31.58A33.29,33.29,0,0,1,72.29,94.82Z" style="fill:none;stroke:#00b624;stroke-miterlimit:10;stroke-width:3.5px"/><path d="M102.23,41.1s-9.94.65-16.76-2.24c-7.4-3.12-13.88-10-13.88-10s-6.48,6.92-13.88,10C50.89,41.75,41,41.1,41,41.1s-1,21.31,6.66,37.49,24.16,19.8,24.16,19.8,16.16-3.61,23.8-19.8S102.23,41.1,102.23,41.1Z" style="fill:none;stroke:#1a5336;stroke-miterlimit:10;stroke-width:3.5px"/><path d="M71.73,91.25C68,90,58.69,86,53.81,75.67c-4.38-9.29-5.61-20.77-5.93-27.8a39.94,39.94,0,0,0,12.5-2.69,46.78,46.78,0,0,0,11.21-7,46.78,46.78,0,0,0,11.21,7,39.94,39.94,0,0,0,12.5,2.69c-.31,7-1.55,18.51-5.93,27.79C84.53,85.9,75.3,90,71.73,91.25Z" style="fill:#fff"/><path d="M71.73,91.25C68,90,58.69,86,53.81,75.67c-4.38-9.29-5.61-20.77-5.93-27.8a39.94,39.94,0,0,0,12.5-2.69,46.78,46.78,0,0,0,11.21-7,46.78,46.78,0,0,0,11.21,7,39.94,39.94,0,0,0,12.5,2.69c-.31,7-1.55,18.51-5.93,27.79C84.53,85.9,75.3,90,71.73,91.25Z" style="fill:none;stroke:#1a5336;stroke-miterlimit:10;stroke-width:3.5px"/><path d="M64.64,60.41H62.2v13.4H81V60.41H78.54m-12-4a5,5,0,0,1,10.06,0v4H66.56Z" style="fill:none;stroke:#1a5336;stroke-linecap:square;stroke-miterlimit:10;stroke-width:3px"/><rect x="62.2" y="59.96" width="18.78" height="13.42" style="fill:#1a5336"/><polygon points="207.27 77.93 188.69 70.31 196.31 88.89 199.27 85.93 207.32 93.98 212.35 88.95 204.3 80.9 207.27 77.93" style="fill:none;stroke:#1a5336;stroke-linecap:square;stroke-miterlimit:10;stroke-width:3px"/><rect x="113.32" y="82.14" width="34.59" height="67.87" rx="1.95" style="fill:#1a5336"/><polygon points="143.91 123.83 143.91 120.33 138.84 120.33 138.84 86.14 135.34 86.14 135.34 123.83 143.91 123.83" style="fill:#1a5336"/><path d="M143.91,123.89h8V84.09a6,6,0,0,0-5.94-6h-7.13v8h5.07Z" style="fill:#fff"/><rect x="145.94" y="127.99" width="5.84" height="11.76" style="fill:#fff"/><rect x="135.34" y="78.14" width="3.5" height="8" style="fill:#fff"/><rect x="113.32" y="82.14" width="34.59" height="67.87" rx="1.95" style="fill:#fff"/><path d="M146,151.76h-30.7a3.7,3.7,0,0,1-3.7-3.7v-64a3.7,3.7,0,0,1,3.7-3.7H146a3.7,3.7,0,0,1,3.69,3.7v64A3.7,3.7,0,0,1,146,151.76Zm-30.7-67.87a.2.2,0,0,0-.2.2v64a.2.2,0,0,0,.2.2H146a.2.2,0,0,0,.19-.2v-64a.2.2,0,0,0-.19-.2Z" style="fill:#1a5336"/><rect x="113.32" y="86.48" width="34.59" height="3.5" style="fill:#1a5336"/><rect x="113.32" y="138.08" width="34.59" height="3.5" style="fill:#1a5336"/><rect x="126.3" y="143.5" width="8.63" height="2.56" style="fill:#1a5336"/><rect x="115.27" y="80.39" width="30.7" height="3.5" style="fill:#1a5336"/><line x1="115.27" y1="82.14" x2="145.97" y2="82.14" style="fill:none;stroke:#1a5336;stroke-miterlimit:10;stroke-width:3.5px"/></g></svg>